<svg width="221" height="49" viewBox="0 0 221 49" fill="none" xmlns="http://www.w3.org/2000/svg">
<path d="M58.2833 45L59.5834 37.1683H64.7689L64.5395 38.5335H61.0098L60.7039 40.3996H63.8894L63.6599 41.7648H60.4745L59.9391 45H58.2833ZM72.8449 41.1912C72.7022 42.0274 72.4256 42.7374 72.0151 43.3212C71.6072 43.905 71.1088 44.3486 70.5199 44.652C69.9335 44.9554 69.3013 45.1071 68.6231 45.1071C67.9119 45.1071 67.2987 44.9452 66.7838 44.6214C66.2713 44.2976 65.9004 43.8298 65.671 43.218C65.4415 42.6036 65.3982 41.863 65.5409 40.9962C65.6786 40.1574 65.9527 39.4462 66.3631 38.8624C66.7736 38.276 67.2745 37.8299 67.866 37.5239C68.4574 37.2155 69.0935 37.0612 69.7742 37.0612C70.4804 37.0612 71.0897 37.2244 71.6021 37.5507C72.1171 37.877 72.488 38.3487 72.7149 38.9656C72.9444 39.58 72.9877 40.3219 72.8449 41.1912ZM71.1968 40.9962C71.286 40.4583 71.2822 40.007 71.1853 39.6425C71.091 39.2754 70.9176 38.9975 70.6652 38.8088C70.4128 38.6202 70.0941 38.5258 69.7092 38.5258C69.2911 38.5258 68.9074 38.6304 68.5581 38.8394C68.2114 39.0485 67.9182 39.3518 67.6786 39.7495C67.4415 40.1447 67.2771 40.6253 67.1853 41.1912C67.0935 41.7317 67.0961 42.1829 67.1929 42.5449C67.2924 42.907 67.4695 43.181 67.7245 43.3671C67.982 43.5507 68.3019 43.6425 68.6843 43.6425C69.0999 43.6425 69.4797 43.5405 69.8239 43.3365C70.1706 43.13 70.4625 42.8305 70.6996 42.4379C70.9367 42.0427 71.1024 41.5622 71.1968 40.9962ZM73.8674 45L75.1676 37.1683H78.2575C78.8489 37.1683 79.3359 37.2728 79.7183 37.4819C80.1032 37.6909 80.3735 37.9879 80.529 38.3729C80.6871 38.7553 80.724 39.2065 80.6399 39.7266C80.5532 40.2467 80.3658 40.6928 80.0778 41.065C79.7922 41.4372 79.42 41.724 78.9611 41.9254C78.5048 42.1243 77.9758 42.2237 77.3741 42.2237H75.3053L75.5347 40.8929H77.3321C77.6482 40.8929 77.9184 40.8496 78.1428 40.7629C78.3671 40.6762 78.5443 40.5462 78.6743 40.3729C78.8069 40.1995 78.8936 39.9841 78.9344 39.7266C78.9777 39.464 78.9624 39.2448 78.8885 39.0689C78.8145 38.8904 78.6807 38.7553 78.4869 38.6635C78.2932 38.5692 78.0382 38.522 77.7221 38.522H76.6055L75.5233 45H73.8674ZM78.6858 41.436L80.0433 45H78.2154L76.8999 41.436H78.6858ZM82.7284 37.1683H84.7704L86.0591 42.4302H86.1509L89.1758 37.1683H91.2178L89.9176 45H88.3115L89.1605 39.9025H89.0916L86.2312 44.9618H85.1337L83.9559 39.8834H83.8909L83.0343 45H81.4282L82.7284 37.1683ZM91.7126 45L93.0128 37.1683H98.29L98.0606 38.5335H94.4392L94.1333 40.3996H97.4832L97.2537 41.7648H93.9038L93.5979 43.6348H97.2346L97.0051 45H91.7126ZM98.737 45L100.037 37.1683H103.127C103.719 37.1683 104.205 37.2728 104.588 37.4819C104.973 37.6909 105.243 37.9879 105.399 38.3729C105.557 38.7553 105.594 39.2065 105.509 39.7266C105.423 40.2467 105.235 40.6928 104.947 41.065C104.662 41.4372 104.29 41.724 103.831 41.9254C103.374 42.1243 102.845 42.2237 102.244 42.2237H100.175L100.404 40.8929H102.202C102.518 40.8929 102.788 40.8496 103.012 40.7629C103.237 40.6762 103.414 40.5462 103.544 40.3729C103.676 40.1995 103.763 39.9841 103.804 39.7266C103.847 39.464 103.832 39.2448 103.758 39.0689C103.684 38.8904 103.55 38.7553 103.357 38.6635C103.163 38.5692 102.908 38.522 102.592 38.522H101.475L100.393 45H98.737ZM103.555 41.436L104.913 45H103.085L101.77 41.436H103.555ZM106.298 45L107.598 37.1683H109.254L108.183 43.6348H111.541L111.311 45H106.298ZM112.681 37.1683H114.535L115.763 40.5411H115.847L118.184 37.1683H120.038L116.344 42.2314L115.881 45H114.237L114.7 42.2314L112.681 37.1683ZM123.769 38.5335L123.998 37.1683H130.43L130.201 38.5335H127.803L126.732 45H125.096L126.166 38.5335H123.769ZM138.094 41.1912C137.951 42.0274 137.675 42.7374 137.264 43.3212C136.857 43.905 136.358 44.3486 135.769 44.652C135.183 44.9554 134.551 45.1071 133.872 45.1071C133.161 45.1071 132.548 44.9452 132.033 44.6214C131.521 44.2976 131.15 43.8298 130.92 43.218C130.691 42.6036 130.647 41.863 130.79 40.9962C130.928 40.1574 131.202 39.4462 131.612 38.8624C132.023 38.276 132.524 37.8299 133.115 37.5239C133.707 37.2155 134.343 37.0612 135.024 37.0612C135.73 37.0612 136.339 37.2244 136.851 37.5507C137.366 37.877 137.737 38.3487 137.964 38.9656C138.194 39.58 138.237 40.3219 138.094 41.1912ZM136.446 40.9962C136.535 40.4583 136.531 40.007 136.435 39.6425C136.34 39.2754 136.167 38.9975 135.915 38.8088C135.662 38.6202 135.343 38.5258 134.959 38.5258C134.54 38.5258 134.157 38.6304 133.807 38.8394C133.461 39.0485 133.168 39.3518 132.928 39.7495C132.691 40.1447 132.526 40.6253 132.435 41.1912C132.343 41.7317 132.345 42.1829 132.442 42.5449C132.542 42.907 132.719 43.181 132.974 43.3671C133.231 43.5507 133.551 43.6425 133.934 43.6425C134.349 43.6425 134.729 43.5405 135.073 43.3365C135.42 43.13 135.712 42.8305 135.949 42.4379C136.186 42.0427 136.352 41.5622 136.446 40.9962ZM139.117 45L140.417 37.1683H143.507C144.098 37.1683 144.584 37.2817 144.964 37.5086C145.346 37.733 145.614 38.0453 145.767 38.4455C145.922 38.8432 145.958 39.3021 145.874 39.8222C145.787 40.3448 145.599 40.805 145.308 41.2027C145.02 41.5978 144.645 41.9063 144.184 42.1281C143.722 42.3499 143.189 42.4608 142.585 42.4608H140.616L140.834 41.1339H142.535C142.857 41.1339 143.131 41.079 143.358 40.9694C143.587 40.8572 143.769 40.703 143.905 40.5067C144.04 40.3079 144.128 40.0797 144.168 39.8222C144.212 39.5596 144.198 39.3314 144.126 39.1377C144.055 38.9439 143.924 38.7935 143.732 38.6864C143.544 38.5768 143.29 38.522 142.971 38.522H141.855L140.773 45H139.117ZM147.292 38.5335L147.522 37.1683H153.954L153.724 38.5335H151.327L150.256 45H148.619L149.69 38.5335H147.292ZM157.1 37.1683L155.799 45H154.144L155.444 37.1683H157.1ZM157.593 45L158.893 37.1683H164.17L163.94 38.5335H160.319L160.013 40.3996H163.363L163.134 41.7648H159.784L159.478 43.6348H163.114L162.885 45H157.593ZM164.617 45L165.917 37.1683H169.007C169.598 37.1683 170.085 37.2728 170.468 37.4819C170.853 37.6909 171.123 37.9879 171.278 38.3729C171.437 38.7553 171.473 39.2065 171.389 39.7266C171.303 40.2467 171.115 40.6928 170.827 41.065C170.542 41.4372 170.169 41.724 169.711 41.9254C169.254 42.1243 168.725 42.2237 168.124 42.2237H166.055L166.284 40.8929H168.082C168.398 40.8929 168.668 40.8496 168.892 40.7629C169.117 40.6762 169.294 40.5462 169.424 40.3729C169.556 40.1995 169.643 39.9841 169.684 39.7266C169.727 39.464 169.712 39.2448 169.638 39.0689C169.564 38.8904 169.43 38.7553 169.236 38.6635C169.043 38.5692 168.788 38.522 168.472 38.522H167.355L166.273 45H164.617ZM169.435 41.436L170.793 45H168.965L167.649 41.436H169.435ZM175.873 38.5335L176.103 37.1683H182.535L182.305 38.5335H179.908L178.837 45H177.2L178.271 38.5335H175.873ZM182.725 45L184.025 37.1683H187.115C187.706 37.1683 188.193 37.2728 188.575 37.4819C188.96 37.6909 189.231 37.9879 189.386 38.3729C189.544 38.7553 189.581 39.2065 189.497 39.7266C189.41 40.2467 189.223 40.6928 188.935 41.065C188.649 41.4372 188.277 41.724 187.818 41.9254C187.362 42.1243 186.833 42.2237 186.231 42.2237H184.162L184.392 40.8929H186.189C186.505 40.8929 186.776 40.8496 187 40.7629C187.224 40.6762 187.401 40.5462 187.531 40.3729C187.664 40.1995 187.751 39.9841 187.791 39.7266C187.835 39.464 187.82 39.2448 187.746 39.0689C187.672 38.8904 187.538 38.7553 187.344 38.6635C187.15 38.5692 186.895 38.522 186.579 38.522H185.463L184.38 45H182.725ZM187.543 41.436L188.9 45H187.073L185.757 41.436H187.543ZM191.635 45H189.861L193.865 37.1683H195.998L197.398 45H195.624L194.672 38.958H194.61L191.635 45ZM192.041 41.9216H196.232L196.01 43.2142H191.819L192.041 41.9216ZM201.586 45H198.771L200.072 37.1683H202.833C203.62 37.1683 204.274 37.3289 204.794 37.6501C205.317 37.9713 205.685 38.4315 205.9 39.0306C206.114 39.6272 206.152 40.3397 206.014 41.1683C205.882 41.9688 205.618 42.6558 205.223 43.2295C204.828 43.8005 204.321 44.239 203.705 44.5449C203.088 44.8483 202.381 45 201.586 45ZM200.664 43.5813H201.682C202.174 43.5813 202.604 43.4895 202.974 43.3059C203.346 43.1224 203.651 42.8394 203.888 42.457C204.128 42.0746 204.297 41.5851 204.397 40.9885C204.491 40.4226 204.485 39.9637 204.378 39.6119C204.273 39.2575 204.07 38.9987 203.77 38.8356C203.469 38.6699 203.074 38.587 202.584 38.587H201.494L200.664 43.5813ZM207.037 45L208.337 37.1683H213.614L213.385 38.5335H209.763L209.457 40.3996H212.807L212.578 41.7648H209.228L208.922 43.6348H212.559L212.329 45H207.037ZM214.061 45L215.361 37.1683H218.451C219.043 37.1683 219.53 37.2728 219.912 37.4819C220.297 37.6909 220.567 37.9879 220.723 38.3729C220.881 38.7553 220.918 39.2065 220.834 39.7266C220.747 40.2467 220.56 40.6928 220.272 41.065C219.986 41.4372 219.614 41.724 219.155 41.9254C218.699 42.1243 218.17 42.2237 217.568 42.2237H215.499L215.728 40.8929H217.526C217.842 40.8929 218.112 40.8496 218.337 40.7629C218.561 40.6762 218.738 40.5462 218.868 40.3729C219.001 40.1995 219.087 39.9841 219.128 39.7266C219.171 39.464 219.156 39.2448 219.082 39.0689C219.008 38.8904 218.874 38.7553 218.681 38.6635C218.487 38.5692 218.232 38.522 217.916 38.522H216.799L215.717 45H214.061ZM218.88 41.436L220.237 45H218.409L217.094 41.436H218.88Z" fill="white"/>
<path d="M49.6835 0H42.1341L30.7592 12.7106L27.4856 6.43248H0.935749L0 12.0711H6.62003L3.64149 29.6581H9.82378L12.8023 12.0711H23.5365L26.6482 17.4452L11.8824 34.1533H19.5016L29.3191 22.7657L33.5379 30.7417H40.8209L33.4649 17.8579L49.6835 0Z" fill="white"/>
<path d="M87.9287 12.0711L88.8645 6.43246H72.8584L68.9505 29.6581H75.1296L76.5729 21.0961H84.2523L85.2198 15.4575H77.5213L78.0923 12.0711H87.9287Z" fill="white"/>
<path d="M105.235 6.43245L102.862 20.6677C102.751 21.3985 102.472 22.0411 102.028 22.5924C101.581 23.1468 101.013 23.5752 100.325 23.8871C99.6333 24.1958 98.8562 24.3502 97.987 24.3502C97.2733 24.3502 96.6833 24.2116 96.2171 23.9344C95.7508 23.6571 95.4272 23.2445 95.2496 22.6901C95.072 22.1388 95.0497 21.4615 95.183 20.6646L97.5556 6.4293H91.3734L89.0007 20.6646C88.6898 22.5893 88.8294 24.2525 89.4194 25.6574C90.0094 27.0624 91.0118 28.146 92.4265 28.9083C93.8412 29.6707 95.6175 30.0518 97.7555 30.0518C99.8934 30.0518 101.648 29.6864 103.218 28.9556C104.788 28.2248 106.069 27.16 107.059 25.7551C108.049 24.3502 108.712 22.6523 109.048 20.6614L111.421 6.42615H105.238L105.235 6.43245Z" fill="white"/>
<path d="M128.556 19.3258L121.638 6.43246H115.091L111.18 29.6581H117.362L119.633 16.2576L126.818 29.6581H133L136.908 6.43246H130.726L128.556 19.3258Z" fill="white"/>
<path d="M155.115 7.97285C153.336 6.97112 151.207 6.46081 148.733 6.43561V6.42931H140.914L137.006 29.6549H144.825C146.763 29.6549 148.584 29.3777 150.288 28.8264C151.991 28.2752 153.507 27.5003 154.833 26.5048C156.159 25.5094 157.257 24.325 158.126 22.9547C158.995 21.5844 159.563 20.0692 159.829 18.4091C160.229 16.0654 160 13.9958 159.144 12.2034C158.287 10.411 156.943 9.00293 155.119 7.97285H155.115ZM153.612 17.6783C153.456 18.5855 153.139 19.414 152.66 20.1668C152.181 20.9197 151.579 21.5718 150.855 22.1231C150.132 22.6775 149.317 23.1027 148.416 23.402C147.515 23.7012 146.573 23.8493 145.593 23.8493H144.166L146.12 12.2349H147.766C149.123 12.2349 150.272 12.468 151.207 12.9311C152.143 13.3942 152.822 14.0305 153.247 14.84C153.669 15.6465 153.793 16.5946 153.615 17.6783H153.612Z" fill="white"/>
<path d="M160.762 29.6581H166.944L170.855 6.43246H164.673L160.762 29.6581Z" fill="white"/>
<path d="M188.33 19.3258L181.412 6.43246H174.861L170.954 29.6581H177.136L179.404 16.2576L186.588 29.6581H192.771L196.682 6.43246H190.5L188.33 19.3258Z" fill="white"/>
<path d="M209.678 16.6513L208.875 21.2977H213.944C213.789 21.808 213.589 22.2585 213.335 22.6428C212.945 23.2287 212.428 23.6729 211.781 23.969C211.134 24.2683 210.331 24.4163 209.376 24.4163C208.421 24.4163 207.571 24.2242 206.839 23.8367C206.103 23.4492 205.503 22.9358 205.034 22.2932C204.567 21.6505 204.244 20.9607 204.066 20.2204C203.889 19.4801 203.854 18.7556 203.965 18.0468C204.209 16.5442 204.659 15.3252 205.319 14.3959C205.976 13.4666 206.763 12.783 207.676 12.3389C208.59 11.8979 209.535 11.6742 210.515 11.6742C211.029 11.6742 211.571 11.7687 212.152 11.9546C212.732 12.1436 213.265 12.4082 213.757 12.7515C214.245 13.0949 214.613 13.5107 214.861 13.9958L220.574 11.3088C220.107 10.3134 219.476 9.41874 218.686 8.62177C217.896 7.8248 216.91 7.19478 215.73 6.73171C214.55 6.26865 213.135 6.03554 211.486 6.03554C209.459 6.03554 207.648 6.31275 206.055 6.86402C204.463 7.41843 203.099 8.20281 201.963 9.22029C200.828 10.2378 199.901 11.46 199.191 12.887C198.477 14.314 197.966 15.9111 197.656 17.6814C197.389 19.1872 197.472 20.674 197.906 22.1451C198.341 23.6162 199.058 24.9487 200.06 26.1426C201.062 27.3365 202.303 28.2878 203.784 28.9965C205.265 29.7053 206.931 30.0581 208.78 30.0581C211.207 30.0581 213.189 29.699 214.727 28.9808C216.263 28.2626 217.471 27.1506 218.353 25.6449C219.232 24.1423 219.863 22.2176 220.24 19.8707L220.777 16.6513H209.678Z" fill="white"/>
<path d="M63.0693 6.36316H47.5613L43.241 11.1198L42.781 11.649H53.3724L46.727 16.4844L46.8634 19.8424H49.1346C51.5993 19.8424 52.9347 20.5638 52.83 21.9908C52.5731 25.5283 44.9571 24.9046 39.2728 23.2193L42.67 29.2895C51.3741 30.7701 59.3834 29.9353 59.339 21.7797C59.3168 17.8263 56.0179 16.4592 54.5239 16.056L61.7783 11.0379L63.0662 6.35686L63.0693 6.36316Z" fill="white"/>
</svg>
