<svg width="193" height="209" viewBox="0 0 193 209" fill="none" xmlns="http://www.w3.org/2000/svg">
<g clip-path="url(#clip0_561_156)">
<path d="M27.5979 177.373L98.0479 76.287L112.489 86.3513L71.9235 199.369L58.5393 190.041L48.0264 191.61L41.9851 178.504L27.5979 177.373Z" fill="#83C495"/>
<path d="M102.73 202.113L105.623 78.933L123.22 79.3464L151.829 195.966L135.52 195.582L127.623 202.697L115.348 195.109L102.73 202.113Z" fill="#83C495"/>
<path d="M27.5979 177.373L98.0479 76.287L112.489 86.3513L71.9235 199.369L58.5393 190.041L48.0264 191.61L41.9851 178.504L27.5979 177.373Z" fill="#A3720C"/>
<path d="M102.73 202.113L105.623 78.933L123.22 79.3464L151.829 195.966L135.52 195.582L127.623 202.697L115.348 195.109L102.73 202.113Z" fill="#A3720C"/>
<path d="M140.222 17.5746C146.322 16.6523 152.078 20.664 153.325 26.7068V26.7068C154.265 31.2646 157.836 34.8202 162.398 35.7403V35.7403C168.447 36.9602 172.484 42.6987 171.588 48.8034V48.8034C170.913 53.4078 173.053 57.9705 177.025 60.3954V60.3954C182.291 63.6103 184.122 70.3834 181.192 75.8138V75.8138C178.983 79.9095 179.433 84.9289 182.336 88.5661V88.5661C186.186 93.3883 185.589 100.379 180.979 104.48V104.48C177.502 107.573 176.209 112.444 177.693 116.855V116.855C179.661 122.702 176.709 129.068 170.975 131.345V131.345C166.65 133.062 163.768 137.197 163.654 141.849V141.849C163.503 148.017 158.553 152.989 152.385 153.167V153.167C147.734 153.302 143.612 156.202 141.913 160.534V160.534C139.662 166.279 133.31 169.258 127.453 167.316V167.316C123.036 165.851 118.171 167.166 115.093 170.657V170.657C111.013 175.285 104.024 175.912 99.1853 172.084V172.084C95.5354 169.197 90.5141 168.769 86.4281 170.996V170.996C81.0107 173.95 74.2296 172.149 70.9915 166.897V166.897C68.5492 162.935 63.9771 160.815 59.3757 161.511V161.511C53.2749 162.433 47.5188 158.422 46.2722 152.379V152.379C45.3321 147.821 41.7607 144.266 37.1989 143.345V143.345C31.1506 142.126 27.1136 136.387 28.0091 130.282V130.282C28.6845 125.678 26.5446 121.115 22.5726 118.69V118.69C17.3063 115.475 15.4754 108.702 18.4048 103.272V103.272C20.6143 99.1762 20.164 94.1568 17.2608 90.5197V90.5197C13.4117 85.6975 14.0078 78.7066 18.6178 74.6057V74.6057C22.0949 71.5126 23.3885 66.6419 21.9044 62.2312V62.2312C19.9367 56.3833 22.8879 50.018 28.6224 47.7411V47.7411C32.9477 46.0237 35.8292 41.8892 35.9431 37.2369V37.2369C36.0942 31.0687 41.0445 26.0966 47.2119 25.9183V25.9183C51.8637 25.7839 55.9855 22.8842 57.6838 18.5515V18.5515C59.9354 12.8069 66.2877 9.82775 72.1442 11.7697V11.7697C76.5614 13.2343 81.4264 11.9193 84.5041 8.42865V8.42865C88.5847 3.80064 95.5728 3.17375 100.412 7.00159V7.00159C104.062 9.8887 109.083 10.3169 113.169 8.0894V8.0894C118.587 5.13614 125.368 6.93714 128.606 12.1892V12.1892C131.048 16.1505 135.62 18.2703 140.222 17.5746V17.5746Z" fill="url(#paint0_linear_561_156)"/>
<circle cx="99.7987" cy="89.5429" r="70.837" transform="rotate(34.8738 99.7987 89.5429)" stroke="white" stroke-width="1.71726"/>
<circle cx="100.009" cy="89.4336" r="65.2559" transform="rotate(4.87384 100.009 89.4336)" fill="white" fill-opacity="0.2"/>
<path d="M68.8537 78.3646L69.7065 68.3637L74.193 68.7463C74.9245 68.8087 75.5389 68.987 76.0361 69.2812C76.5427 69.5762 76.9155 69.9625 77.1546 70.4399C77.4029 70.9181 77.5007 71.4675 77.4478 72.0879C77.3957 72.699 77.2063 73.2239 76.8798 73.6624C76.5532 74.1009 76.1196 74.4277 75.579 74.6428C75.0391 74.8486 74.4034 74.9203 73.6718 74.8579L70.5882 74.595L70.709 73.1782L73.7093 73.434C74.2834 73.483 74.7359 73.3723 75.0668 73.1021C75.4069 72.8326 75.5986 72.4432 75.6421 71.9339C75.6847 71.4339 75.5608 71.0269 75.2705 70.713C74.9894 70.3999 74.5618 70.2188 73.9876 70.1699L71.3902 69.9484L70.6594 78.5186L68.8537 78.3646ZM78.0359 79.1476L78.8887 69.1467L83.1113 69.5068C83.8243 69.5676 84.4345 69.7408 84.9418 70.0266C85.4491 70.3124 85.823 70.6847 86.0637 71.1436C86.3137 71.6033 86.4138 72.1249 86.364 72.7083C86.3151 73.2824 86.1285 73.7748 85.8044 74.1856C85.4894 74.5971 85.0578 74.9007 84.5094 75.0965C83.9611 75.2923 83.3304 75.3597 82.6174 75.2989L79.8116 75.0597L79.9288 73.6846L82.6791 73.9191C83.2625 73.9688 83.7184 73.8725 84.0469 73.63C84.3846 73.3883 84.5736 73.0313 84.6139 72.559C84.6542 72.0868 84.5322 71.7126 84.2479 71.4365C83.9644 71.1512 83.5264 70.9832 82.9337 70.9327L80.5724 70.7314L79.8416 79.3015L78.0359 79.1476ZM83.7586 79.6356L79.7358 74.1438L81.7637 74.3167L86.2589 79.8487L83.7586 79.6356ZM91.7936 80.4606C91.0713 80.399 90.4153 80.2172 89.8254 79.915C89.2356 79.6129 88.7335 79.211 88.3192 78.7093C87.9142 78.2084 87.6136 77.6324 87.4173 76.9814C87.231 76.3219 87.1702 75.6125 87.235 74.8532C87.321 73.8439 87.6094 72.9777 88.1001 72.2547C88.5916 71.5224 89.2306 70.9753 90.017 70.6133C90.8134 70.2428 91.6931 70.0986 92.6562 70.1807C93.6378 70.2644 94.485 70.5559 95.198 71.0551C95.921 71.5458 96.4627 72.1936 96.8231 72.9985C97.1835 73.8034 97.3207 74.7105 97.2346 75.7199C97.1699 76.4792 96.9857 77.1631 96.682 77.7714C96.3875 78.3806 95.9937 78.8973 95.5004 79.3216C95.0165 79.7467 94.4582 80.0582 93.8258 80.2561C93.1933 80.454 92.5159 80.5222 91.7936 80.4606ZM91.9053 78.9871C92.535 79.0408 93.0993 78.9303 93.5985 78.6558C94.1068 78.382 94.519 77.9787 94.8349 77.446C95.1516 76.9041 95.3411 76.2673 95.4035 75.5358C95.4651 74.8135 95.3845 74.1723 95.1618 73.6124C94.9491 73.0439 94.6146 72.591 94.1584 72.2536C93.7122 71.9077 93.1696 71.7076 92.5306 71.6531C91.901 71.5994 91.3323 71.7048 90.8247 71.9693C90.3272 72.2254 89.9259 72.6109 89.6208 73.1259C89.3157 73.6409 89.132 74.2641 89.0696 74.9957C89.0065 75.7365 89.0808 76.3957 89.2927 76.9734C89.5139 77.5519 89.8472 78.0188 90.2926 78.3739C90.7473 78.7298 91.2848 78.9342 91.9053 78.9871ZM102.196 81.3476C100.844 81.2324 99.8538 80.7608 99.2248 79.933C98.5958 79.1052 98.3426 77.9736 98.4649 76.5383L98.9494 70.8573L100.755 71.0113L100.248 76.9562C100.17 77.873 100.315 78.5756 100.684 79.0641C101.054 79.5433 101.604 79.8141 102.336 79.8765C103.067 79.9389 103.656 79.7652 104.101 79.3554C104.547 78.9364 104.809 78.2732 104.886 77.3657L105.394 71.4068L107.2 71.5608L106.714 77.2558C106.593 78.6818 106.147 79.7491 105.378 80.4577C104.618 81.1671 103.557 81.4637 102.196 81.3476ZM109.071 81.794L109.194 80.3494L111.778 80.5697C112.537 80.6344 113.198 80.5369 113.762 80.2771C114.325 80.0174 114.769 79.6261 115.093 79.1035C115.427 78.5816 115.623 77.9688 115.683 77.265C115.743 76.5705 115.651 75.9471 115.409 75.3948C115.176 74.8433 114.804 74.4011 114.291 74.0683C113.788 73.7269 113.153 73.5235 112.384 73.458L109.829 73.24L109.952 71.7955L112.508 72.0134C113.6 72.1066 114.537 72.3916 115.317 72.8685C116.097 73.3455 116.677 73.9779 117.058 74.7659C117.448 75.5454 117.601 76.4398 117.515 77.4492C117.428 78.4585 117.126 79.3235 116.608 80.0441C116.09 80.7555 115.406 81.2848 114.556 81.632C113.714 81.98 112.752 82.1078 111.669 82.0154L109.071 81.794ZM107.974 81.7004L108.827 71.6995L110.632 71.8535L109.78 81.8544L107.974 81.7004ZM118.459 82.5945L119.312 72.5936L121.118 72.7476L120.265 82.7485L118.459 82.5945ZM119.32 82.6679L119.442 81.2372L125.304 81.7371L125.182 83.1677L119.32 82.6679ZM127.756 83.3872L128.115 79.1785L124.858 73.0665L127.039 73.2525L129.658 78.6385L128.685 78.5556L132.164 73.6895L134.165 73.8601L129.92 79.3325L129.561 83.5412L127.756 83.3872ZM56.0633 90.3211L56.9161 80.3203L59.7219 80.5595L61.9557 90.4598L60.9695 90.3757L64.8473 80.9966L67.667 81.237L66.8142 91.2379L65.0363 91.0863L65.8382 81.6827L66.1299 81.7075L62.3555 90.8577L60.4248 90.693L58.2748 81.1217L58.5526 81.1454L57.7579 90.4656L56.0633 90.3211ZM68.0704 91.345L72.6041 81.658L74.1598 81.7906L69.8484 91.4966L68.0704 91.345ZM75.6128 91.9881L73.0208 81.6935L74.6598 81.8333L77.474 92.1468L75.6128 91.9881ZM70.3086 87.5764L75.7813 88.043L75.6581 89.4876L70.1854 89.0209L70.3086 87.5764ZM79.827 92.3475L79.9502 90.9029L82.5337 91.1232C83.2931 91.188 83.9543 91.0904 84.5174 90.8307C85.0806 90.5709 85.5243 90.1796 85.8487 89.657C86.1824 89.1351 86.3792 88.5223 86.4392 87.8185C86.4984 87.124 86.407 86.5006 86.165 85.9483C85.9322 85.3968 85.5595 84.9546 85.0469 84.6218C84.5443 84.2804 83.9087 84.077 83.1402 84.0115L80.5844 83.7935L80.7076 82.349L83.2633 82.5669C84.356 82.6601 85.2924 82.9451 86.0726 83.4221C86.8527 83.899 87.4331 84.5314 87.8136 85.3194C88.2042 86.0989 88.3564 86.9933 88.2704 88.0027C88.1843 89.012 87.882 89.877 87.3635 90.5976C86.8458 91.309 86.1617 91.8383 85.3113 92.1855C84.4702 92.5335 83.5079 92.6613 82.4245 92.569L79.827 92.3475ZM78.7297 92.2539L79.5825 82.253L81.3882 82.407L80.5354 92.4079L78.7297 92.2539ZM89.2151 93.148L90.0679 83.1471L91.8736 83.3011L91.0208 93.302L89.2151 93.148ZM90.0763 93.2214L90.1983 91.7908L96.5322 92.3308L96.4102 93.7615L90.0763 93.2214ZM90.4553 88.7766L90.5749 87.3737L96.4226 87.8723L96.303 89.2752L90.4553 88.7766ZM90.8071 84.6512L90.9291 83.2206L97.1102 83.7476L96.9882 85.1783L90.8071 84.6512ZM100.65 94.1231L101.503 84.1222L103.309 84.2762L102.456 94.277L100.65 94.1231ZM104.177 94.4238L105.03 84.4229L107.266 84.6136L111.4 93.7245L110.875 93.8057L111.627 84.9855L113.378 85.1347L112.525 95.1356L110.288 94.9449L106.154 85.834L106.679 85.7528L105.927 94.573L104.177 94.4238ZM119.775 95.7539L120.506 87.1837L117.186 86.9006L117.308 85.4699L125.753 86.19L125.631 87.6207L122.311 87.3376L121.581 95.9078L119.775 95.7539ZM126.151 96.2976L127.004 86.2967L128.81 86.4507L127.957 96.4515L126.151 96.2976ZM132.694 96.8554L133.546 86.8546L135.352 87.0085L134.499 97.0094L132.694 96.8554ZM127.517 90.4538L134.018 91.0081L133.897 92.4249L127.396 91.8706L127.517 90.4538ZM136.216 97.1558L137.069 87.1549L138.875 87.3089L138.022 97.3098L136.216 97.1558ZM137.077 97.2292L137.199 95.7986L143.533 96.3387L143.411 97.7693L137.077 97.2292ZM137.456 92.7844L137.576 91.3815L143.424 91.8801L143.304 93.283L137.456 92.7844ZM137.808 88.659L137.93 87.2284L144.111 87.7554L143.989 89.1861L137.808 88.659Z" fill="white"/>
<path d="M63.7772 129.929C58.8573 129.509 55.2819 127.853 53.0507 124.959C50.8543 122.037 49.9767 117.988 50.4181 112.812L52.0485 93.692L59.4283 94.3213L57.6875 114.736C57.4315 117.739 57.8984 119.999 59.0884 121.516C60.2784 123.034 62.0235 123.89 64.3237 124.086C66.6239 124.283 68.4888 123.734 69.9185 122.44C71.3482 121.146 72.1897 119.013 72.4431 116.042L74.1879 95.5799L81.5677 96.2092L79.9291 115.425C79.4933 120.537 77.9296 124.346 75.2381 126.851C72.5493 129.325 68.729 130.351 63.7772 129.929ZM96.9575 132.71C92.4849 132.328 88.9913 131.033 86.4766 128.823C83.9647 126.582 82.6403 123.621 82.5036 119.941L89.5959 120.546C89.6615 122.418 90.4307 123.964 91.9035 125.183C93.3791 126.371 95.3308 127.068 97.7588 127.275C99.7395 127.444 101.287 127.222 102.401 126.609C103.547 125.999 104.171 125.103 104.272 123.921C104.367 122.803 104.124 121.881 103.542 121.156C102.963 120.398 101.908 119.745 100.378 119.196L94.1083 116.876C90.8967 115.669 88.5923 114.201 87.195 112.473C85.8324 110.716 85.2547 108.623 85.4617 106.195C85.6388 104.118 86.3184 102.374 87.5007 100.963C88.7177 99.5219 90.3346 98.4852 92.3515 97.8527C94.3711 97.1883 96.6908 96.9677 99.3104 97.1911C103.336 97.5344 106.465 98.7666 108.697 100.888C110.933 102.977 112.077 105.601 112.129 108.759L105.037 108.154C104.862 106.433 104.185 105.121 103.007 104.216C101.862 103.314 100.33 102.781 98.4133 102.617C96.7521 102.476 95.399 102.682 94.3542 103.237C93.3093 103.791 92.7406 104.611 92.648 105.698C92.5771 106.528 92.7833 107.318 93.2665 108.067C93.7524 108.785 94.8375 109.456 96.5218 110.083L102.792 112.403C106.099 113.618 108.418 115.103 109.749 116.858C111.114 118.583 111.692 120.676 111.482 123.136C111.188 126.586 109.764 129.136 107.21 130.784C104.656 132.433 101.238 133.075 96.9575 132.71ZM111.889 133.549L127.194 100.1L133.52 100.639L119.221 134.174L111.889 133.549ZM137.191 135.706L128.824 100.239L135.437 100.803L144.858 136.36L137.191 135.706ZM119.546 120.734L138.906 122.385L138.416 128.136L119.056 126.485L119.546 120.734Z" fill="white"/>
<g clip-path="url(#clip1_561_156)">
<path d="M131.907 36.8875C131.182 35.3542 129.703 34.2285 127.891 34.0741L110.719 32.6098L110.51 35.0629L131.907 36.8875ZM86.5498 55.2582L130.706 59.0234L130.496 61.4765L86.3407 57.7113L86.5498 55.2582ZM109.464 47.3284L131.542 49.211L131.333 51.6641L109.255 49.7815L109.464 47.3284ZM109.883 42.4222L131.961 44.3048L131.752 46.7579L109.674 44.8753L109.883 42.4222ZM86.9682 50.352L131.124 54.1172L130.915 56.5703L86.759 52.8051L86.9682 50.352ZM90.8285 63.0359L125.172 65.9644C126.984 66.1188 128.632 65.2599 129.607 63.8716L86.8122 60.2225C87.5376 61.7558 89.0169 62.8814 90.8285 63.0359ZM110.301 37.516L132.379 39.3986L132.17 41.8517L110.092 39.9691L110.301 37.516Z" fill="#B22334"/>
<path d="M86.353 58.5513C86.3637 58.6675 86.3781 58.7828 86.3964 58.8972C86.4186 59.0226 86.4459 59.1469 86.4783 59.2699C86.5603 59.5968 86.6667 59.9148 86.809 60.216L86.8122 60.2225L129.606 63.8716L129.609 63.8669C129.8 63.5927 129.963 63.2998 130.094 62.9927C130.193 62.769 130.276 62.5381 130.341 62.3021C130.414 62.0366 130.472 61.7623 130.496 61.4765L86.3406 57.7113C86.3162 57.9971 86.327 58.276 86.353 58.5513ZM86.759 52.8051L130.915 56.5703L130.706 59.0234L86.5498 55.2582L86.759 52.8051ZM87.1773 47.8989L86.9681 50.352L131.124 54.1172L131.333 51.6641L109.255 49.7815L87.1773 47.8989ZM109.674 44.8753L131.751 46.7579L131.542 49.211L109.464 47.3284L109.674 44.8753ZM110.092 39.9691L132.17 41.8517L131.961 44.3048L109.883 42.4222L110.092 39.9691ZM88.4802 34.4742C88.5215 34.3517 88.5746 34.2364 88.6241 34.1196C88.5715 34.2359 88.5235 34.3542 88.4802 34.4742ZM110.301 37.516L132.379 39.3986C132.403 39.1128 132.393 38.8327 132.365 38.5573C132.343 38.3134 132.3 38.0717 132.238 37.8348C132.16 37.5086 132.05 37.1912 131.907 36.8875L110.51 35.0629L110.301 37.516Z" fill="#EEEEEE"/>
<path d="M110.719 32.6098L93.5478 31.1456C92.2466 31.0346 90.9546 31.4451 89.9561 32.2868C88.9575 33.1284 88.3342 34.3322 88.2232 35.6334L87.1774 47.8989L109.255 49.7815L110.719 32.6098Z" fill="#3C3B6E"/>
<path d="M90.8103 34.2801L91.5213 34.8954L91.1561 35.76L91.9597 35.275L92.6708 35.8892L92.4572 34.9752L93.2622 34.4891L92.3251 34.4092L92.1116 33.4941L91.7474 34.36L90.8103 34.2801ZM93.0542 36.9423L93.7653 37.5577L93.4 38.4223L94.2036 37.9373L94.9148 38.5514L94.7011 37.6375L95.5061 37.1514L94.569 37.0715L94.3555 36.1563L93.9913 37.0222L93.0542 36.9423ZM97.9604 37.3607L98.6715 37.976L98.3062 38.8406L99.1098 38.3557L99.821 38.9698L99.6073 38.0558L100.412 37.5698L99.4752 37.4899L99.2617 36.5747L98.8975 37.4406L97.9604 37.3607ZM102.867 37.779L103.578 38.3944L103.212 39.259L104.016 38.774L104.727 39.3881L104.514 38.4742L105.318 37.9881L104.381 37.9082L104.168 36.9931L103.804 37.859L102.867 37.779ZM92.6359 41.8485L93.3469 42.4639L92.9816 43.3285L93.7853 42.8435L94.4964 43.4576L94.2828 42.5437L95.0877 42.0576L94.1507 41.9777L93.9371 41.0625L93.573 41.9284L92.6359 41.8485ZM97.5421 42.2669L98.2531 42.8822L97.8878 43.7468L98.6915 43.2618L99.4026 43.876L99.189 42.962L99.9939 42.476L99.0569 42.3961L98.8433 41.4809L98.4792 42.3468L97.5421 42.2669ZM102.448 42.6852L103.159 43.3006L102.794 44.1652L103.598 43.6802L104.309 44.2943L104.095 43.3804L104.9 42.8943L103.963 42.8144L103.75 41.8993L103.385 42.7651L102.448 42.6852ZM95.7165 34.6984L96.4275 35.3138L96.0623 36.1783L96.8659 35.6934L97.577 36.3075L97.3634 35.3936L98.1684 34.9075L97.2313 34.8276L97.0178 33.9124L96.6536 34.7783L95.7165 34.6984ZM100.623 35.1168L101.334 35.7321L100.968 36.5967L101.772 36.1117L102.483 36.7259L102.27 35.8119L103.075 35.3258L102.137 35.2459L101.924 34.3308L101.56 35.1967L100.623 35.1168ZM105.529 35.5351L106.24 36.1505L105.875 37.015L106.678 36.5301L107.389 37.1442L107.176 36.2303L107.981 35.7442L107.044 35.6643L106.83 34.7491L106.466 35.615L105.529 35.5351ZM90.3919 39.1863L91.103 39.8016L90.7377 40.6662L91.5413 40.1812L92.2525 40.7953L92.0389 39.8814L92.8438 39.3953L91.9067 39.3154L91.6932 38.4003L91.329 39.2662L90.3919 39.1863ZM95.6439 41.0845L96.4475 40.5996L97.1587 41.2137L96.945 40.2998L97.75 39.8137L96.8129 39.7338L96.5994 38.8186L96.2352 39.6845L95.2981 39.6046L96.0092 40.22L95.6439 41.0845ZM100.204 40.023L100.915 40.6383L100.55 41.5029L101.354 41.0179L102.065 41.6321L101.851 40.7181L102.656 40.232L101.719 40.1521L101.506 39.237L101.141 40.1029L100.204 40.023ZM105.111 40.4413L105.822 41.0567L105.456 41.9212L106.26 41.4363L106.971 42.0504L106.757 41.1365L107.562 40.6504L106.625 40.5705L106.412 39.6553L106.048 40.5212L105.111 40.4413ZM89.9736 44.0925L90.6846 44.7078L90.3193 45.5724L91.123 45.0874L91.8341 45.7015L91.6205 44.7876L92.4255 44.3015L91.4884 44.2216L91.2748 43.3065L90.9107 44.1724L89.9736 44.0925ZM95.2255 45.9907L96.0292 45.5058L96.7403 46.1199L96.5267 45.206L97.3317 44.7199L96.3946 44.64L96.181 43.7248L95.8169 44.5907L94.8798 44.5108L95.5908 45.1262L95.2255 45.9907ZM99.786 44.9292L100.497 45.5445L100.132 46.4091L100.935 45.9241L101.647 46.5383L101.433 45.6243L102.238 45.1382L101.301 45.0583L101.087 44.1432L100.723 45.0091L99.786 44.9292ZM104.692 45.3475L105.403 45.9629L105.038 46.8274L105.842 46.3425L106.553 46.9566L106.339 46.0427L107.144 45.5566L106.207 45.4767L105.993 44.5615L105.629 45.4274L104.692 45.3475Z" fill="white"/>
</g>
</g>
<defs>
<linearGradient id="paint0_linear_561_156" x1="92.1864" y1="4.31535" x2="97.5751" y2="168.507" gradientUnits="userSpaceOnUse">
<stop stop-color="#A3720C"/>
<stop offset="1" stop-color="#CEA348"/>
</linearGradient>
<clipPath id="clip0_561_156">
<rect width="193" height="209" fill="white"/>
</clipPath>
<clipPath id="clip1_561_156">
<rect x="88.6416" y="30.7272" width="33.4112" height="32.006" rx="16.003" transform="rotate(4.87384 88.6416 30.7272)" fill="white"/>
</clipPath>
</defs>
</svg>
